<svg width="600" height="420" viewBox="0 0 680 420" role="img" xmlns="http://www.w3.org/2000/svg">
  <title>Preview del To-Do List</title>
  <rect width="680" height="420" fill="#f2ece3" rx="14"/>
  <rect x="89" y="53" width="502" height="334" rx="18" fill="#d9d3cb" opacity="0.5"/>
  <rect x="84" y="48" width="502" height="334" rx="18" fill="#ffffff"/>
  <rect x="84" y="48" width="502" height="110" rx="18" fill="#f2ece3"/>
  <rect x="84" y="130" width="502" height="28" fill="#f2ece3"/>
  <text x="118" y="95" font-family="Georgia, serif" font-weight="900" font-size="28" fill="#e84c1e" letter-spacing="-1">(</text>
  <text x="138" y="95" font-family="Georgia, serif" font-weight="900" font-size="22" fill="#1a1a1a" letter-spacing="-0.5">Mi Lista de</text>
  <text x="296" y="88" font-family="Georgia, serif" font-weight="900" font-size="18" fill="#e84c1e">)</text>
  <text x="118" y="123" font-family="Georgia, serif" font-size="9" fill="#1a1a1a">✦</text>
  <text x="131" y="126" font-family="Georgia, serif" font-weight="900" font-style="italic" font-size="32" fill="#e84c1e" letter-spacing="-1">Tareas</text>
  <text x="261" y="128" font-family="Georgia, serif" font-weight="900" font-size="22" fill="#e84c1e">)</text>
  <path d="M272 122 C295 112, 320 110, 340 116" stroke="#1a1a1a" stroke-width="1.8" stroke-linecap="round" fill="none" opacity="0.6"/>
  <text x="118" y="152" font-family="monospace" font-size="10" fill="#aaa">Miércoles, 27 de Mayo de 2026</text>
  <rect x="104" y="168" width="380" height="36" rx="18" fill="#ffffff" stroke="#e0d8cc" stroke-width="1.2"/>
  <text x="126" y="191" font-family="sans-serif" font-size="11" fill="#bbb">Agregar nueva tarea...</text>
  <rect x="494" y="168" width="36" height="36" rx="10" fill="#e84c1e"/>
  <text x="512" y="191" font-family="sans-serif" font-size="20" font-weight="300" fill="#ffffff" text-anchor="middle">+</text>
  <rect x="104" y="216" width="54" height="22" rx="11" fill="#e84c1e"/>
  <text x="131" y="231" font-family="sans-serif" font-size="10" fill="#ffffff" text-anchor="middle">Todas</text>
  <rect x="164" y="216" width="72" height="22" rx="11" fill="none" stroke="#e0d8cc" stroke-width="1.2"/>
  <text x="200" y="231" font-family="sans-serif" font-size="10" fill="#999" text-anchor="middle">Pendientes</text>
  <rect x="242" y="216" width="80" height="22" rx="11" fill="none" stroke="#e0d8cc" stroke-width="1.2"/>
  <text x="282" y="231" font-family="sans-serif" font-size="10" fill="#999" text-anchor="middle">Completadas</text>
  <rect x="104" y="250" width="426" height="34" rx="10" fill="#faf7f2" stroke="#e0d8cc" stroke-width="1"/>
  <rect x="116" y="259" width="16" height="16" rx="4" fill="#e84c1e"/>
  <path d="M119 267 L122 270 L129 263" stroke="white" stroke-width="1.8" stroke-linecap="round" stroke-linejoin="round" fill="none"/>
  <text x="140" y="271" font-family="sans-serif" font-size="11" fill="#c0b9b0" text-decoration="line-through">Diseñar la interfaz del portafolio</text>
  <rect x="104" y="292" width="426" height="34" rx="10" fill="#ffffff" stroke="#e0d8cc" stroke-width="1"/>
  <rect x="116" y="301" width="16" height="16" rx="4" fill="none" stroke="#e0d8cc" stroke-width="1.2"/>
  <text x="140" y="313" font-family="sans-serif" font-size="11" fill="#1a1a1a">Subir proyectos a GitHub</text>
  <rect x="104" y="334" width="426" height="34" rx="10" fill="#ffffff" stroke="#e0d8cc" stroke-width="1"/>
  <rect x="116" y="343" width="16" height="16" rx="4" fill="none" stroke="#e0d8cc" stroke-width="1.2"/>
  <text x="140" y="355" font-family="sans-serif" font-size="11" fill="#1a1a1a">Activar GitHub Pages</text>
  <line x1="104" y1="382" x2="530" y2="382" stroke="#e0d8cc" stroke-width="1"/>
  <text x="104" y="397" font-family="monospace" font-size="9" fill="#aaa">2 tareas pendientes</text>
  <text x="530" y="397" font-family="sans-serif" font-size="9" fill="#aaa" text-anchor="end">Borrar completadas</text>
  <rect x="516" y="58" width="58" height="20" rx="10" fill="#e84c1e" opacity="0.12"/>
  <text x="545" y="72" font-family="sans-serif" font-size="9" fill="#e84c1e" text-anchor="middle" font-weight="600">localStorage</text>
  <text x="46" y="72" font-family="sans-serif" font-size="11" fill="#e84c1e" opacity="0.3">✦</text>
  <text x="620" y="370" font-family="sans-serif" font-size="11" fill="#e84c1e" opacity="0.3">✦</text>
</svg>
